<svg width="16" height="17" viewBox="0 0 16 17" fill="none" xmlns="http://www.w3.org/2000/svg">
<path d="M14.4496 8.01244C14.4307 7.99469 14.4108 7.97802 14.3901 7.9625L11.5042 5.07665C11.44 5.01057 11.3633 4.95792 11.2785 4.92175C11.1937 4.88559 11.1026 4.86663 11.0105 4.86597C10.9183 4.86532 10.827 4.88299 10.7417 4.91796C10.6564 4.95292 10.579 5.00448 10.5138 5.06965C10.4487 5.13481 10.3971 5.21227 10.3621 5.29753C10.3272 5.3828 10.3095 5.47416 10.3102 5.56631C10.3108 5.65846 10.3298 5.74956 10.3659 5.83433C10.4021 5.91909 10.4547 5.99581 10.5208 6.06005L12.284 7.82325L2.04293 7.82325C1.95044 7.82136 1.85849 7.83795 1.77249 7.87205C1.68648 7.90615 1.60815 7.95706 1.54206 8.02181C1.47598 8.08656 1.42348 8.16385 1.38764 8.24914C1.3518 8.33443 1.33334 8.42602 1.33334 8.51854C1.33334 8.61106 1.3518 8.70264 1.38764 8.78793C1.42348 8.87323 1.47598 8.95051 1.54206 9.01526C1.60814 9.08002 1.68648 9.13093 1.77249 9.16502C1.85849 9.19912 1.95044 9.21571 2.04293 9.21383L12.284 9.21383L10.5208 10.977C10.4547 11.0413 10.4021 11.118 10.3659 11.2028C10.3298 11.2875 10.3108 11.3786 10.3102 11.4708C10.3095 11.5629 10.3272 11.6543 10.3621 11.7395C10.3971 11.8248 10.4487 11.9023 10.5138 11.9674C10.579 12.0326 10.6564 12.0842 10.7417 12.1191C10.827 12.1541 10.9183 12.1718 11.0105 12.1711C11.1026 12.1705 11.1937 12.1515 11.2785 12.1153C11.3633 12.0792 11.44 12.0265 11.5042 11.9604L14.392 9.07266C14.4726 9.01166 14.5389 8.93383 14.5863 8.84459C14.6338 8.75534 14.6612 8.65683 14.6667 8.55591C14.6722 8.45499 14.6556 8.35409 14.6181 8.26023C14.5806 8.16637 14.5231 8.08181 14.4496 8.01244Z" fill="white"/>
</svg>
