<svg viewBox="0 0 30 20" fill="none" xmlns="http://www.w3.org/2000/svg">
<g clip-path="url(#clip0_169_913)">
<path d="M29.3957 1.47156C28.8 0.592805 27.8133 0.0679706 26.7558 0.0679706C25.4321 0.0679706 24.2644 0.869426 23.7812 2.1091L20.0727 11.625L18.432 7.41472L19.8052 3.89083C20.1417 3.02791 20.0325 2.05601 19.5136 1.29041C18.9948 0.524814 18.1349 0.0675049 17.2139 0.0675049H12.7857C11.8647 0.0675049 11.0053 0.524814 10.486 1.29041C9.96716 2.05601 9.85794 3.02791 10.1944 3.89083L11.5676 7.41472L9.92689 11.625L6.21882 2.1091C5.73518 0.869426 4.5675 0.0679706 3.24385 0.0679706C2.18678 0.0679706 1.20006 0.592805 0.604421 1.47156C0.00877846 2.35032 -0.116644 3.46612 0.269343 4.45665L4.74291 15.9355C5.1525 16.9861 5.85875 17.8774 6.78531 18.5135C7.71186 19.1492 8.79439 19.4854 9.91625 19.4854C10.8025 19.4854 11.6768 19.2731 12.4566 18.8698C13.2388 19.2731 14.1103 19.4854 14.9892 19.4854C14.9933 19.4854 14.997 19.4854 15.0012 19.4854H15.0044H15.0081H15.0118C15.8907 19.4854 16.7622 19.2731 17.5444 18.8698C18.3237 19.2731 19.1985 19.4854 20.0848 19.4854C21.2061 19.4854 22.2887 19.1492 23.2152 18.5135C24.1418 17.8779 24.848 16.9861 25.2576 15.9355L29.7312 4.45665C30.1172 3.46612 29.9918 2.35032 29.3961 1.47156H29.3957ZM26.4114 0.414445C25.9458 0.469862 25.5108 0.63658 25.1364 0.893176C25.5103 0.63658 25.9458 0.469862 26.4114 0.414445ZM17.2144 1.74586C17.5893 1.74586 17.9253 1.92468 18.1363 2.23576C18.3473 2.54731 18.3899 2.92732 18.2534 3.27845L17.537 5.117L16.223 1.74586H17.2144ZM16.6409 7.41519L15.0003 11.625L13.3596 7.41519L15.0003 3.20533L16.6409 7.41519ZM11.8642 2.23623C12.0753 1.92468 12.4113 1.74586 12.7862 1.74586H13.7775L12.4636 5.117L11.7471 3.27845C11.6102 2.92732 11.6532 2.54731 11.8642 2.23623ZM9.91579 17.8071C8.30473 17.8071 6.88343 16.8319 6.29519 15.3226L1.82209 3.84426C1.63465 3.36367 1.69296 2.84349 1.98222 2.41692C2.27102 1.99035 2.73105 1.74586 3.24432 1.74586C3.87698 1.74586 4.4356 2.12912 4.66654 2.72195L9.81628 15.9355C10.0718 16.5907 10.4351 17.1761 10.9002 17.6828C10.5818 17.7656 10.2523 17.8076 9.91625 17.8076L9.91579 17.8071ZM12.4636 16.8515C11.9434 16.3956 11.5528 15.813 11.3274 15.1527C11.027 14.273 11.0488 13.3439 11.3912 12.4661L12.464 9.71384L13.5368 12.4661C13.8789 13.3439 13.9011 14.273 13.6007 15.1527C13.3753 15.813 12.9847 16.3956 12.4645 16.8515H12.4636ZM14.9961 19.159C14.9961 19.159 14.9984 19.159 14.9998 19.159C14.9998 19.159 14.9975 19.159 14.9961 19.159ZM15.0003 17.8066C14.6606 17.8057 14.3278 17.7619 14.0061 17.6762C14.4171 17.2245 14.7536 16.7085 15.0003 16.1506C15.2465 16.7085 15.583 17.225 15.9944 17.6762C15.6727 17.7619 15.34 17.8057 15.0003 17.8066ZM17.5365 16.8515C17.0163 16.3956 16.6257 15.813 16.4003 15.1527C16.0999 14.273 16.1217 13.3439 16.4642 12.4661L17.537 9.71384L18.6098 12.4661C18.9518 13.3439 18.974 14.273 18.6736 15.1527C18.4482 15.813 18.0576 16.3956 17.5374 16.8515H17.5365ZM28.1785 3.84426L23.7049 15.3231C23.1166 16.8324 21.6958 17.8076 20.0843 17.8076C19.7483 17.8076 19.4192 17.7656 19.1003 17.6828C19.5655 17.1765 19.9288 16.5907 20.1843 15.9355L25.334 2.72195C25.5649 2.12912 26.1231 1.74586 26.7562 1.74586C27.269 1.74586 27.7291 1.99035 28.0183 2.41692C28.3076 2.84349 28.3659 3.36367 28.1785 3.84426ZM28.4797 3.96301C28.5223 3.85358 28.5543 3.74274 28.576 3.63144C28.5543 3.74321 28.5223 3.85404 28.4797 3.96301ZM29.5586 2.65396C29.5794 2.74756 29.5956 2.84163 29.6067 2.93663C29.5951 2.84163 29.5789 2.74756 29.5586 2.65396Z" fill="white"/>
</g>
<defs>
<clipPath id="clip0_169_913">
<rect width="29.9029" height="19.4175" fill="white" transform="translate(0.048584 0.0679321)"/>
</clipPath>
</defs>
</svg>
