<svg width="70" height="50" viewBox="0 0 70 50" xmlns="http://www.w3.org/2000/svg">
<path d="M20.1923 1.45228e-06H23.137C24.7075 1.45228e-06 25.8293 0.451979 26.5024 1.35593C27.1194 2.31639 27.4279 4.0113 27.4279 6.44068V24.322L10.3486 50H1.55717e-06L14.6394 23.5593H4.87981C3.3093 23.5593 2.21555 23.1073 1.59856 22.2034C0.981572 21.3559 0.673078 19.6893 0.673078 17.2034V6.44068C0.673078 3.72881 1.00962 1.9774 1.68269 1.18644C2.35577 0.395482 4.43109 1.45228e-06 7.90866 1.45228e-06H20.1923ZM62.9327 1.45228e-06H65.8774C67.3918 1.45228e-06 68.4575 0.451979 69.0745 1.35593C69.6915 2.25989 70 3.9548 70 6.44068V24.322L52.9207 50H42.7404L57.3798 23.5593H47.5361C46.0216 23.5593 44.9559 23.1073 44.3389 22.2034C43.722 21.3559 43.4135 19.6893 43.4135 17.2034V6.44068C43.4135 3.72881 43.75 1.9774 44.4231 1.18644C45.0401 0.395482 47.0593 1.45228e-06 50.4808 1.45228e-06H62.9327Z" fill="#4A5EFF"/>
</svg>
