<svg width="24" height="24" viewBox="0 0 24 24" fill="none" xmlns="http://www.w3.org/2000/svg">
<path d="M2.85714 0C1.28599 0 0 1.28599 0 2.85714V21.1429C0 22.714 1.28599 24 2.85714 24H21.1429C22.714 24 24 22.714 24 21.1429V2.85714C24 1.28599 22.714 0 21.1429 0H2.85714ZM2.85714 1.14286H21.1429C22.0963 1.14286 22.8571 1.90372 22.8571 2.85714V21.1429C22.8571 22.0963 22.0963 22.8571 21.1429 22.8571H2.85714C1.90372 22.8571 1.14286 22.0963 1.14286 21.1429V2.85714C1.14286 1.90372 1.90372 1.14286 2.85714 1.14286ZM5.71429 4.0067C5.08845 4.0067 4.52527 4.19376 4.10826 4.54464C3.69125 4.89553 3.43527 5.41972 3.43527 5.98103C3.43527 7.04799 4.36073 7.87978 5.53795 7.96205L5.54018 7.96317C5.59627 7.98229 5.65503 7.99246 5.71429 7.9933C7.01315 7.9933 7.9933 7.08348 7.9933 5.98103C7.9932 5.97097 7.99283 5.96093 7.99219 5.95089C7.93404 4.86505 6.96597 4.0067 5.71429 4.0067ZM5.71429 5.13616C6.50985 5.13616 6.82398 5.49145 6.85826 5.99554C6.85132 6.48482 6.54862 6.86384 5.71429 6.86384C4.92263 6.86384 4.56473 6.45841 4.56473 5.98103C4.56473 5.74233 4.65183 5.56246 4.83482 5.40848C5.01781 5.25451 5.31156 5.13616 5.71429 5.13616ZM4 8.57143C3.84845 8.57144 3.70312 8.63165 3.59596 8.73881C3.4888 8.84597 3.42859 8.99131 3.42857 9.14286V20C3.42859 20.1515 3.4888 20.2969 3.59596 20.404C3.70312 20.5112 3.84845 20.5714 4 20.5714H7.42857C7.58012 20.5714 7.72546 20.5112 7.83262 20.404C7.93978 20.2969 7.99999 20.1515 8 20V16.6484V9.14286C7.99999 8.99131 7.93978 8.84597 7.83262 8.73881C7.72546 8.63165 7.58012 8.57144 7.42857 8.57143H4ZM9.14286 8.57143C8.99131 8.57144 8.84597 8.63165 8.73881 8.73881C8.63165 8.84597 8.57144 8.99131 8.57143 9.14286V20C8.57144 20.1515 8.63165 20.2969 8.73881 20.404C8.84597 20.5112 8.99131 20.5714 9.14286 20.5714H12.5714C12.723 20.5714 12.8683 20.5112 12.9755 20.404C13.0826 20.2969 13.1428 20.1515 13.1429 20V14.2857C13.1429 13.8116 13.2722 13.34 13.5 13.0313C13.7278 12.7225 14.0151 12.5372 14.5614 12.5469C15.1247 12.5566 15.4229 12.7495 15.6484 13.0525C15.874 13.3554 16 13.8095 16 14.2857V20C16 20.1515 16.0602 20.2969 16.1674 20.404C16.2745 20.5112 16.4199 20.5714 16.5714 20.5714H20C20.1515 20.5714 20.2969 20.5112 20.404 20.404C20.5112 20.2969 20.5714 20.1515 20.5714 20V13.8638C20.5714 12.1715 20.0702 10.831 19.2109 9.92411C18.3517 9.01717 17.1567 8.57143 15.8929 8.57143C14.6917 8.57143 13.7776 8.97422 13.1429 9.38505V9.14286C13.1428 8.99131 13.0826 8.84597 12.9755 8.73881C12.8683 8.63165 12.723 8.57144 12.5714 8.57143H9.14286ZM4.57143 9.71429H6.85714V16.6484V19.4286H4.57143V9.71429ZM9.71429 9.71429H12V10.606C12 10.7258 12.0377 10.8426 12.1078 10.9399C12.1778 11.0371 12.2766 11.1098 12.3902 11.1478C12.5039 11.1858 12.6266 11.1872 12.741 11.1516C12.8554 11.1161 12.9558 11.0455 13.0279 10.9498C13.0279 10.9498 13.9253 9.71429 15.8929 9.71429C16.8948 9.71429 17.7539 10.0472 18.3817 10.7098C19.0095 11.3725 19.4286 12.3933 19.4286 13.8638V19.4286H17.1429V14.2857C17.1429 13.619 16.9831 12.9298 16.5658 12.3694C16.1486 11.8091 15.4468 11.4189 14.5815 11.404C13.7117 11.3886 12.9986 11.7869 12.5804 12.3538C12.1621 12.9207 12 13.617 12 14.2857V19.4286H9.71429V9.71429Z" fill="white"/>
</svg>
