<svg viewBox="0 0 24 24" fill="none" xmlns="http://www.w3.org/2000/svg">
<path d="M23.9381 5.56257C23.8299 5.04184 23.5882 4.56532 23.2508 4.17166C23.1796 4.08589 23.1053 4.00907 23.0247 3.93226C22.4268 3.35814 21.5877 3 20.6709 3H3.32912C2.41238 3 1.57622 3.35814 0.975518 3.93226C0.895127 4.00907 0.820783 4.08589 0.749439 4.17166C0.411798 4.56527 0.170157 5.04184 0.0649689 5.56257C0.02175 5.76354 0 5.97123 0 6.18121V17.8191C0 18.2656 0.0990939 18.6948 0.275813 19.0823C0.439735 19.4523 0.681423 19.787 0.975471 20.0677C1.05 20.1388 1.12402 20.2041 1.20478 20.269C1.78069 20.7248 2.52408 21 3.32912 21H20.6709C21.4762 21 22.2229 20.7248 22.7955 20.2662C22.876 20.2041 22.9504 20.1388 23.0247 20.0677C23.3186 19.787 23.5603 19.4523 23.7276 19.0823V19.0795C23.9042 18.6919 24 18.2656 24 17.8192V6.18121C24 5.97123 23.9786 5.76354 23.9381 5.56257ZM2.18011 5.08314C2.47754 4.79926 2.87696 4.6274 3.32912 4.6274H20.6709C21.1231 4.6274 21.526 4.79926 21.8199 5.08314C21.8725 5.1337 21.9221 5.19005 21.9658 5.24604L12.8764 12.8153C12.6257 13.0252 12.3161 13.1289 12 13.1289C11.6872 13.1289 11.3777 13.0252 11.1237 12.8153L2.03775 5.24281C2.07797 5.18682 2.12752 5.1337 2.18011 5.08314ZM1.70316 17.8191V6.92687L8.28086 12.4098L1.70649 17.887C1.70316 17.8662 1.70316 17.8428 1.70316 17.8191ZM20.6709 19.3723H3.32912C3.03469 19.3723 2.75921 19.2983 2.52408 19.1684L9.46057 13.3923L10.1081 13.9306C10.6501 14.3806 11.3282 14.6085 12 14.6085C12.6753 14.6085 13.3534 14.3806 13.8953 13.9306L14.5425 13.3923L21.4763 19.1684C21.2408 19.2983 20.9654 19.3723 20.6709 19.3723ZM22.2969 17.8191C22.2969 17.8428 22.2969 17.8662 22.2937 17.887L15.7194 12.413L22.2969 6.92978V17.8191Z" fill="white"/>
</svg>
