<svg width="24" height="18" viewBox="0 0 24 18" fill="none" xmlns="http://www.w3.org/2000/svg">
<path d="M23.9381 2.56257C23.8299 2.04184 23.5882 1.56532 23.2508 1.17166C23.1796 1.08589 23.1053 1.00907 23.0247 0.932258C22.4268 0.35814 21.5877 0 20.6709 0H3.32912C2.41238 0 1.57622 0.35814 0.975518 0.932258C0.895127 1.00907 0.820783 1.08589 0.749439 1.17166C0.411798 1.56527 0.170157 2.04184 0.0649689 2.56257C0.02175 2.76354 0 2.97123 0 3.1812V14.8191C0 15.2656 0.0990939 15.6948 0.275813 16.0823C0.439735 16.4523 0.681423 16.787 0.975471 17.0677C1.05 17.1388 1.12402 17.2041 1.20478 17.269C1.78069 17.7248 2.52408 18 3.32912 18H20.6709C21.4762 18 22.2229 17.7248 22.7955 17.2662C22.876 17.2041 22.9504 17.1388 23.0247 17.0677C23.3186 16.787 23.5603 16.4523 23.7276 16.0823V16.0795C23.9042 15.6919 24 15.2656 24 14.8192V3.1812C24 2.97123 23.9786 2.76354 23.9381 2.56257ZM2.18011 2.08314C2.47754 1.79926 2.87696 1.6274 3.32912 1.6274H20.6709C21.1231 1.6274 21.526 1.79926 21.8199 2.08314C21.8725 2.1337 21.9221 2.19005 21.9658 2.24604L12.8764 9.81531C12.6257 10.0252 12.3161 10.1289 12 10.1289C11.6872 10.1289 11.3777 10.0252 11.1237 9.81531L2.03775 2.24281C2.07797 2.18682 2.12752 2.1337 2.18011 2.08314ZM1.70316 14.8191V3.92687L8.28086 9.40983L1.70649 14.887C1.70316 14.8662 1.70316 14.8428 1.70316 14.8191ZM20.6709 16.3723H3.32912C3.03469 16.3723 2.75921 16.2983 2.52408 16.1684L9.46057 10.3923L10.1081 10.9306C10.6501 11.3806 11.3282 11.6085 12 11.6085C12.6753 11.6085 13.3534 11.3806 13.8953 10.9306L14.5425 10.3923L21.4763 16.1684C21.2408 16.2983 20.9654 16.3723 20.6709 16.3723ZM22.2969 14.8191C22.2969 14.8428 22.2969 14.8662 22.2937 14.887L15.7194 9.41301L22.2969 3.92978V14.8191Z" fill="white"/>
</svg>
