<svg width="70" height="50" viewBox="0 0 70 50" xmlns="http://www.w3.org/2000/svg">
<path d="M49.8077 50H46.863C45.2925 50 44.1707 49.548 43.4976 48.6441C42.8806 47.6836 42.5721 45.9887 42.5721 43.5593V25.678L59.6514 0H70L55.3606 26.4407H65.1202C66.6907 26.4407 67.7845 26.8927 68.4014 27.7966C69.0184 28.6441 69.3269 30.3107 69.3269 32.7966V43.5593C69.3269 46.2712 68.9904 48.0226 68.3173 48.8136C67.6442 49.6045 65.5689 50 62.0913 50H49.8077ZM7.06731 50H4.1226C2.60817 50 1.54247 49.548 0.925481 48.6441C0.308494 47.7401 0 46.0452 0 43.5593V25.678L17.0793 0H27.2596L12.6202 26.4407H22.4639C23.9784 26.4407 25.0441 26.8927 25.6611 27.7966C26.278 28.6441 26.5865 30.3107 26.5865 32.7966V43.5593C26.5865 46.2712 26.25 48.0226 25.5769 48.8136C24.9599 49.6045 22.9407 50 19.5192 50H7.06731Z" fill="#4A5EFF"/>
</svg>
