<svg  viewBox="0 0 112 22" fill="#fff" xmlns="http://www.w3.org/2000/svg">
<path d="M8.46728 6.42783C6.69623 6.43306 4.99337 7.10963 3.70358 8.3205V0.653454H0V21.4924C0.681606 21.4924 1.34998 21.3047 1.9314 20.9498C2.51281 20.5949 2.98467 20.0866 3.29492 19.4812C4.61067 20.8987 6.44194 21.779 8.46728 21.779C12.4701 21.779 15.7154 18.3425 15.7154 14.1025C15.7154 9.8626 12.4701 6.42783 8.46728 6.42783ZM8.00476 18.3911C7.15356 18.3911 6.32147 18.1393 5.61373 17.6675C4.90598 17.1957 4.35436 16.5251 4.02862 15.7406C3.70288 14.956 3.61765 14.0927 3.78371 13.2598C3.94977 12.4269 4.35966 11.6618 4.96155 11.0613C5.56344 10.4609 6.3303 10.0519 7.16514 9.88625C7.99999 9.72058 8.86532 9.80561 9.65173 10.1306C10.4381 10.4556 11.1103 11.0059 11.5832 11.712C12.0561 12.4181 12.3085 13.2482 12.3085 14.0974C12.3086 14.6613 12.1974 15.2197 11.9811 15.7407C11.7649 16.2617 11.4479 16.735 11.0482 17.1338C10.6486 17.5325 10.1741 17.8488 9.65186 18.0645C9.12966 18.2802 8.56997 18.3912 8.00476 18.3911ZM17.81 17.7992C17.81 18.2842 17.9058 18.7644 18.0918 19.2125C18.2778 19.6606 18.5505 20.0677 18.8943 20.4107C19.238 20.7536 19.6461 21.0257 20.0952 21.2113C20.5444 21.3969 21.0257 21.4924 21.5119 21.4924V0.653454H17.81V17.7992ZM73.6698 6.70248V21.4924H77.3717V10.3957C77.3717 9.41619 76.9816 8.4768 76.2874 7.78419C75.5932 7.09158 74.6516 6.70248 73.6698 6.70248ZM48.4167 18.4031C47.4391 18.4029 46.4907 18.0713 45.7269 17.4625C44.9632 16.8537 44.4297 16.0039 44.2138 15.0527H56.0692C56.3136 13.0886 55.7889 11.1061 54.6045 9.51832C53.4202 7.93052 51.6674 6.85982 49.7115 6.52925C47.7555 6.19868 45.7471 6.63373 44.1046 7.74379C42.4622 8.85384 41.3123 10.5533 40.8946 12.4881C40.4769 14.423 40.8235 16.444 41.8623 18.1302C42.9011 19.8164 44.5519 21.0377 46.4708 21.5398C48.3898 22.0419 50.4289 21.786 52.1634 20.8254C53.898 19.8648 55.1942 18.2736 55.782 16.3833H52.069C51.6819 17.0014 51.1436 17.5111 50.5047 17.8644C49.8657 18.2177 49.1472 18.4031 48.4167 18.4031ZM48.4167 9.80375C49.2243 9.80371 50.0157 10.0301 50.7006 10.457C51.3855 10.8839 51.9364 11.4943 52.2904 12.2184H44.5438C44.8978 11.4944 45.4486 10.8841 46.1333 10.4572C46.8181 10.0303 47.6092 9.80387 48.4167 9.80375ZM104.3 18.4031C103.322 18.4028 102.374 18.071 101.61 17.4623C100.846 16.8535 100.313 16.0039 100.097 15.0527H111.951C112.194 13.0906 111.668 11.1108 110.484 9.52562C109.3 7.94043 107.549 6.87211 105.595 6.5432C103.641 6.21428 101.635 6.65014 99.9952 7.75997C98.3553 8.86979 97.2078 10.568 96.7918 12.5009C96.3757 14.4338 96.7232 16.4523 97.7618 18.136C98.8004 19.8196 100.45 21.0386 102.367 21.5391C104.284 22.0395 106.321 21.7827 108.053 20.8223C109.785 19.8619 111.079 18.2718 111.665 16.3833H107.951C107.564 17.0014 107.026 17.5111 106.387 17.8644C105.748 18.2177 105.03 18.4031 104.3 18.4031ZM104.3 9.80375C105.108 9.80307 105.9 10.0291 106.585 10.4561C107.271 10.8831 107.822 11.4937 108.177 12.2184H100.43C100.784 11.4948 101.334 10.8848 102.018 10.4579C102.702 10.0309 103.493 9.80431 104.3 9.80375ZM64.1065 16.582L60.2516 6.70077H56.3967L62.1683 21.4941H66.0446L71.8163 6.70077H67.9614L64.1065 16.582ZM34.848 15.1116C34.8551 15.5482 34.7749 15.9819 34.6123 16.3873C34.4497 16.7928 34.2079 17.1619 33.9008 17.4732C33.5938 17.7844 33.2278 18.0317 32.8241 18.2004C32.4203 18.3691 31.987 18.456 31.5493 18.456C31.1115 18.456 30.6782 18.3691 30.2744 18.2004C29.8707 18.0317 29.5047 17.7844 29.1977 17.4732C28.8906 17.1619 28.6488 16.7928 28.4862 16.3873C28.3236 15.9819 28.2434 15.5482 28.2505 15.1116V6.70248H24.5478V15.7965C24.5475 17.0419 24.936 18.2565 25.6594 19.2715C26.3828 20.2865 27.4051 21.0516 28.5843 21.4603C29.7635 21.869 31.041 21.9012 32.2394 21.5523C33.4377 21.2035 34.4974 20.4909 35.2712 19.5136C35.5848 20.1106 36.0561 20.6107 36.6342 20.9595C37.2123 21.3083 37.8751 21.4926 38.5507 21.4924V6.70248H34.848V15.1116ZM88.4277 6.40395C87.5204 6.40336 86.6249 6.60817 85.8085 7.00294C84.992 7.39771 84.276 7.97215 83.7144 8.68299C83.4007 8.08606 82.9293 7.58612 82.3512 7.23732C81.7732 6.88852 81.1105 6.70415 80.4349 6.70418V21.5009H84.1376V13.0876C84.1306 12.6509 84.2107 12.2172 84.3733 11.8118C84.5359 11.4063 84.7778 11.0372 85.0848 10.726C85.3918 10.4147 85.7578 10.1675 86.1616 9.99873C86.5653 9.82999 86.9986 9.74309 87.4364 9.74309C87.8741 9.74309 88.3074 9.82999 88.7112 9.99873C89.1149 10.1675 89.4809 10.4147 89.788 10.726C90.095 11.0372 90.3368 11.4063 90.4994 11.8118C90.6621 12.2172 90.7422 12.6509 90.7351 13.0876V21.5009H94.4379V12.4026C94.4382 11.615 94.283 10.835 93.9811 10.1072C93.6792 9.37946 93.2366 8.71815 92.6784 8.16108C92.1203 7.60402 91.4576 7.16212 90.7283 6.86062C89.9989 6.55913 89.2172 6.40395 88.4277 6.40395ZM73.6698 4.75778C73.6704 4.93394 73.6809 5.10993 73.7014 5.2849C74.3761 5.36651 75.0605 5.29398 75.7029 5.07278C76.3454 4.85159 76.929 4.48752 77.4096 4.00813C77.8902 3.52873 78.2552 2.94657 78.477 2.30569C78.6988 1.6648 78.7717 0.981973 78.69 0.308868C78.0597 0.232746 77.4204 0.291085 76.8145 0.480021C76.2085 0.668958 75.6497 0.98418 75.1751 1.40481C74.7004 1.82544 74.3208 2.34188 74.0613 2.91992C73.8018 3.49796 73.6683 4.12441 73.6698 4.75778Z" fill="white"/>
</svg>
