<svg width="142" height="21" viewBox="0 0 142 21" fill="none" xmlns="http://www.w3.org/2000/svg">
<path d="M61.5382 5.79317H58.2215C58.0622 5.79317 57.9318 5.92351 57.9318 6.08283V8.40014C57.9318 8.55945 58.0622 8.6898 58.2215 8.6898H63.5368C63.783 8.6898 63.9134 8.40014 63.7541 8.21186L61.7554 5.89455C61.6975 5.83662 61.6251 5.79317 61.5382 5.79317Z" fill="white"/>
<path fill-rule="evenodd" clip-rule="evenodd" d="M72.4159 0.724159V19.5523C72.4159 19.9578 72.0973 20.2765 71.6917 20.2765H0.724159C0.31863 20.2765 0 19.9578 0 19.5523V0.724159C0 0.31863 0.31863 0 0.724159 0H71.6917C72.0973 0 72.4159 0.31863 72.4159 0.724159ZM63.0878 2.98343L65.2458 5.48902L69.446 10.3554C69.4894 10.4133 69.5184 10.4712 69.5184 10.5436V17.09C69.5184 17.2494 69.388 17.3797 69.2287 17.3797H66.9114C66.7521 17.3797 66.6217 17.2494 66.6217 17.09V11.8761C66.6217 11.7168 66.4914 11.5864 66.3321 11.5864H58.2215C58.0622 11.5864 57.9318 11.7168 57.9318 11.8761V17.0756C57.9318 17.2349 57.8015 17.3652 57.6422 17.3652H55.3249C55.1656 17.3652 55.0352 17.2349 55.0352 17.0756V3.17171C55.0352 3.01239 55.1656 2.88205 55.3249 2.88205H62.8706C62.9575 2.88205 63.0299 2.9255 63.0878 2.98343ZM34.7596 3.18624V5.50355C34.7596 5.66287 34.6293 5.79321 34.47 5.79321H23.4628C23.3034 5.79321 23.1731 5.92356 23.1731 6.08288V8.40019C23.1731 8.5595 23.3034 8.68985 23.4628 8.68985H27.2284C27.3877 8.68985 27.518 8.8202 27.518 8.97951V11.2968C27.518 11.4561 27.3877 11.5865 27.2284 11.5865H23.4628C23.3034 11.5865 23.1731 11.7168 23.1731 11.8762V14.1935C23.1731 14.3528 23.3034 14.4831 23.4628 14.4831H34.47C34.6293 14.4831 34.7596 14.6135 34.7596 14.7728V17.0901C34.7596 17.2494 34.6293 17.3798 34.47 17.3798H20.5661C20.4068 17.3798 20.2765 17.2494 20.2765 17.0901V3.18624C20.2765 3.02693 20.4068 2.89658 20.5661 2.89658H34.47C34.6293 2.89658 34.7596 3.02693 34.7596 3.18624ZM51.8504 2.89658H49.3737C49.2868 2.89658 49.2144 2.94003 49.1565 2.99796L41.0604 12.3686C40.8866 12.5713 40.5535 12.441 40.5535 12.1803V3.18624C40.5535 3.02693 40.4231 2.89658 40.2638 2.89658H37.9465C37.7872 2.89658 37.6568 3.02693 37.6568 3.18624V17.0901C37.6568 17.2494 37.7872 17.3798 37.9465 17.3798H40.4231C40.51 17.3798 40.5824 17.3363 40.6404 17.2784L44.6667 12.5858C44.7826 12.4555 44.9853 12.4555 45.1012 12.5858L49.1565 17.2784C49.2144 17.3363 49.2868 17.3798 49.3737 17.3798H51.8504C52.0097 17.3798 52.14 17.2494 52.14 17.0901V16.5108C52.14 16.4384 52.111 16.3804 52.0676 16.3225L46.9261 10.3265C46.8392 10.2251 46.8392 10.0513 46.9261 9.94989L52.0676 3.95385C52.111 3.89592 52.14 3.83799 52.14 3.76557V3.18624C52.14 3.02693 52.0097 2.89658 51.8504 2.89658ZM10.3549 7.67593L14.4826 2.89648H17.0751C17.2344 2.89648 17.3648 3.02683 17.3648 3.18614V17.09C17.3648 17.2493 17.2344 17.3797 17.0751 17.3797H14.7578C14.5985 17.3797 14.4681 17.2493 14.4681 17.09V8.11042C14.4681 7.84972 14.135 7.71938 13.9612 7.92214L12.035 10.1381L10.8763 11.485C10.8184 11.5429 10.746 11.5864 10.6591 11.5864H9.60179C9.51489 11.5864 9.44248 11.5429 9.38454 11.485L8.22589 10.1381L6.29963 7.92214C6.12583 7.71938 5.79272 7.83524 5.79272 8.11042V17.09C5.79272 17.2493 5.66237 17.3797 5.50305 17.3797H3.18574C3.02643 17.3797 2.89608 17.2493 2.89608 17.09V3.18614C2.89608 3.02683 3.02643 2.89648 3.18574 2.89648H5.66236C5.74926 2.89648 5.82168 2.93993 5.87961 2.99786L9.92042 7.67593C10.0363 7.80627 10.2391 7.80627 10.3549 7.67593Z" fill="white"/>
<path fill-rule="evenodd" clip-rule="evenodd" d="M142.009 10.781C142.009 10.7086 141.98 10.6507 141.937 10.5927L137.737 5.72639L135.579 3.2208C135.521 3.16287 135.448 3.11942 135.361 3.11942H127.816C127.656 3.11942 127.526 3.24976 127.526 3.40908V17.3129C127.526 17.4722 127.656 17.6026 127.816 17.6026H142.009V10.781ZM130.423 14.4308V6.3202C130.423 6.16088 130.553 6.03054 130.712 6.03054H134.029C134.116 6.03054 134.188 6.07398 134.246 6.13192L139.04 11.679C139.084 11.7369 139.113 11.7948 139.113 11.8673V14.4308C139.113 14.5901 138.982 14.7204 138.823 14.7204H130.712C130.553 14.7204 130.423 14.5901 130.423 14.4308Z" fill="white"/>
<path d="M86.9734 3.42361V12.4032C86.9734 12.6784 86.6402 12.7942 86.4664 12.5915L78.2834 3.13394H75.6765C75.5172 3.13394 75.3868 3.26429 75.3868 3.42361V17.3275C75.3868 17.4868 75.5172 17.6171 75.6765 17.6171H77.9938C78.1531 17.6171 78.2834 17.4868 78.2834 17.3275V8.34789C78.2834 8.07271 78.6166 7.95684 78.7904 8.15961L86.9734 17.6171H89.5803C89.7396 17.6171 89.87 17.4868 89.87 17.3275V3.42361C89.87 3.26429 89.7396 3.13394 89.5803 3.13394H87.263C87.1037 3.13394 86.9734 3.26429 86.9734 3.42361Z" fill="white"/>
<path d="M124.63 3.42361V5.74091C124.63 5.90023 124.499 6.03058 124.34 6.03058H119.126C118.967 6.03058 118.837 6.16093 118.837 6.32024V14.4308C118.837 14.5901 118.967 14.7205 119.126 14.7205H124.34C124.499 14.7205 124.63 14.8508 124.63 15.0101V17.3275C124.63 17.4868 124.499 17.6171 124.34 17.6171H110.436C110.277 17.6171 110.147 17.4868 110.147 17.3275V15.0101C110.147 14.8508 110.277 14.7205 110.436 14.7205H115.65C115.81 14.7205 115.94 14.5901 115.94 14.4308V6.32024C115.94 6.16093 115.81 6.03058 115.65 6.03058H110.436C110.277 6.03058 110.147 5.90023 110.147 5.74091V3.42361C110.147 3.26429 110.277 3.13394 110.436 3.13394H124.34C124.499 3.13394 124.63 3.26429 124.63 3.42361Z" fill="white"/>
<path fill-rule="evenodd" clip-rule="evenodd" d="M93.0569 3.13394C92.8976 3.13394 92.7672 3.26429 92.7672 3.42361V17.3275C92.7672 17.4868 92.8976 17.6171 93.0569 17.6171H106.961C107.12 17.6171 107.25 17.4868 107.25 17.3275V3.42361C107.25 3.26429 107.12 3.13394 106.961 3.13394H93.0569ZM104.064 14.7205H95.9535C95.7942 14.7205 95.6638 14.5901 95.6638 14.4308V6.32024C95.6638 6.16093 95.7942 6.03058 95.9535 6.03058H104.064C104.223 6.03058 104.354 6.16093 104.354 6.32024V14.4308C104.354 14.5901 104.223 14.7205 104.064 14.7205Z" fill="white"/>
</svg>
