<svg width="100" height="27" viewBox="0 0 100 27" fill="none" xmlns="http://www.w3.org/2000/svg">
<path d="M1.51859 13.8427C1.51859 15.6935 1.95307 17.4623 2.8136 19.0997C3.63195 20.6592 4.82994 22.0463 6.2726 23.101L5.36145 24.2829C3.73319 23.0928 2.38334 21.5333 1.45953 19.7728C0.49354 17.926 0 15.9315 0 13.8427C0 12.2996 0.274189 10.7894 0.818348 9.34892C1.34142 7.96181 2.09649 6.6773 3.07092 5.53232C5.02399 3.23415 7.74479 1.64185 10.7313 1.05499C11.6087 0.878524 12.5115 0.792343 13.4142 0.792343C14.0511 0.792343 14.6965 0.837486 15.3251 0.923667C16.1097 1.03037 16.7044 1.6952 16.7044 2.46672V21.2296H15.1859V2.46672C15.1859 2.42568 15.1563 2.39285 15.1099 2.38465C14.5531 2.31078 13.9794 2.26974 13.4142 2.26974C12.6127 2.26974 11.8112 2.34771 11.0351 2.49955C8.38597 3.02075 5.9731 4.43248 4.23938 6.47211C3.37463 7.48987 2.70393 8.62664 2.23991 9.8578C1.76325 11.1341 1.51859 12.472 1.51859 13.8427Z" fill="white"/>
<path d="M21.4669 3.40243C23.0951 4.59255 24.445 6.15203 25.3688 7.91259C26.3348 9.75933 26.8283 11.7538 26.8241 13.8386C26.8241 15.3857 26.5499 16.896 26.01 18.3323C25.4869 19.7194 24.7318 21.0039 23.7574 22.1489C21.8044 24.4512 19.0836 26.0394 16.097 26.6304C15.2196 26.8068 14.3169 26.893 13.4142 26.893C12.773 26.893 12.1318 26.8479 11.5033 26.7617C10.7187 26.655 10.1239 25.9902 10.1239 25.2186V6.45571H11.6425V25.2186C11.6425 25.2597 11.672 25.2925 11.7184 25.3007C12.2752 25.3746 12.8489 25.4156 13.4142 25.4156C14.2156 25.4156 15.0171 25.3376 15.7975 25.1858C18.4466 24.6646 20.8595 23.2529 22.5932 21.2132C23.4579 20.1955 24.1286 19.0587 24.5926 17.8275C25.0693 16.5512 25.314 15.2134 25.314 13.8427C25.314 11.9918 24.8795 10.2231 24.019 8.58562C23.2006 7.02615 22.0026 5.63904 20.5557 4.58435L21.4669 3.40243Z" fill="white"/>
<path d="M32.5427 17.4111C33.6492 18.3221 35.0151 18.9266 36.4631 18.9266C38.0796 18.9266 39.4455 18.045 39.4455 16.7183C39.4455 15.2199 37.8365 14.7977 36.112 14.3452C34.1212 13.8228 31.9765 13.2601 31.9765 10.9542C31.9765 8.66617 34.1895 7.28496 36.3766 7.28496C38.1358 7.28496 39.5838 7.86431 40.552 8.49825L39.7005 9.79549C38.594 9.10699 37.7987 8.77533 36.4631 8.77533C35.1015 8.77533 33.593 9.46384 33.593 10.9248C33.593 12.1593 35.0578 12.5548 36.69 12.9955C38.7435 13.55 41.062 14.1761 41.062 16.6344C41.062 18.977 39.0176 20.4128 36.5755 20.4128C34.4186 20.4128 32.6854 19.6403 31.5486 18.6201L32.5427 17.4111Z" fill="white"/>
<path fill-rule="evenodd" clip-rule="evenodd" d="M55.0361 18.2928V20.14H56.5964V7.56216H55.0361V9.30022C53.8733 8.02816 52.1703 7.28508 50.2944 7.28508C48.7298 7.28508 47.2558 7.83505 46.1753 8.69148C44.7013 9.90477 43.7634 11.7562 43.7634 13.8511C43.7634 16.1139 44.8137 18.0703 46.5167 19.229C47.7961 20.1148 49.1577 20.4171 50.3809 20.4171C52.3951 20.4171 54.0722 19.5607 55.0361 18.2928ZM50.3204 8.77964C52.702 8.77964 54.4093 10.3792 54.9755 11.3154H54.9799V16.1685C53.9555 17.8772 52.2525 18.9267 50.3506 18.9267C49.2398 18.9267 48.25 18.5405 47.4244 17.9905C46.1753 17.1383 45.38 15.5933 45.38 13.8553C45.38 12.2264 46.0586 10.7654 47.1953 9.85439C48.1073 9.13649 49.2398 8.77964 50.3204 8.77964Z" fill="white"/>
<path d="M62.9849 9.27084C63.9229 8.08274 65.5697 7.28508 67.3591 7.28508C69.516 7.28508 71.3054 8.33463 72.2131 9.95934C73.1208 8.69148 74.7114 7.28508 77.2962 7.28508C79.4271 7.28508 81.2165 8.33463 82.1501 9.93415C82.6342 10.7906 82.9152 11.8108 82.9152 13.4942V20.14H81.2986V13.6874C81.2986 11.9241 81.0134 11.0929 80.5595 10.4337C79.8766 9.43876 78.7139 8.77964 77.2918 8.77964C75.2171 8.77964 73.6265 10.186 72.8355 11.7016C72.922 12.197 72.9782 12.8057 72.9782 13.4942V20.14H71.3616V13.6874C71.3616 11.9241 71.0763 11.0929 70.6225 10.4337C69.9396 9.43876 68.7769 8.77964 67.3548 8.77964C65.5956 8.77964 63.8883 9.8292 63.0368 11.3993V20.14H61.4203V7.56216H62.9806V9.27084H62.9849Z" fill="white"/>
<path fill-rule="evenodd" clip-rule="evenodd" d="M97.6024 18.2928V20.14H99.1628V7.56216H97.6024V9.30022C96.4397 8.02816 94.7367 7.28508 92.8609 7.28508C91.2962 7.28508 89.8223 7.83505 88.7417 8.69148C87.2678 9.90477 86.3298 11.7562 86.3298 13.8511C86.3298 16.1139 87.3801 18.0703 89.0831 19.229C90.3625 20.1148 91.7241 20.4171 92.9473 20.4171C94.9615 20.4171 96.6386 19.5607 97.6024 18.2928ZM92.8911 8.77964C95.2727 8.77964 96.98 10.3792 97.5462 11.3154H97.5506V16.1685C96.5262 17.8772 94.8232 18.9267 92.9214 18.9267C91.8105 18.9267 90.8207 18.5405 89.9951 17.9905C88.746 17.1383 87.9507 15.5933 87.9507 13.8553C87.9507 12.2264 88.6293 10.7654 89.7661 9.85439C90.6781 9.13649 91.8105 8.77964 92.8911 8.77964Z" fill="white"/>
</svg>
